<svg preserveAspectRatio="none" width="100%" height="100%" overflow="visible" style="display: block;" viewBox="0 0 30 30" fill="none" xmlns="http://www.w3.org/2000/svg">
<g id="Frame 1226">
<path id="Union" d="M22.2218 13.3761C22.7026 13.3772 23.092 13.7673 23.0929 14.2481L23.1144 25.4942L23.1114 25.4903C23.1125 26.0503 22.6617 26.5012 22.1017 26.5001L10.8527 26.4884C10.3718 26.4874 9.98173 26.098 9.98058 25.6173L9.97081 20.1417C9.97017 19.74 10.2918 19.4184 10.6935 19.419L14.5675 19.4259C14.6463 19.426 14.7188 19.4592 14.7716 19.5118L16.5079 21.2481C16.5607 21.3009 16.5941 21.3736 16.5909 21.4493C16.5945 21.6041 16.4694 21.7293 16.3146 21.7257L13.6857 21.7208C13.5508 21.7174 13.4394 21.8287 13.4396 21.9669L13.4425 23.377C13.4428 23.5152 13.5544 23.6275 13.6925 23.628L18.338 23.6368L19.84 23.6397C20.0639 23.6401 20.2446 23.4594 20.2443 23.2354L20.2413 21.7335L20.2325 17.088C20.2321 16.9498 20.1198 16.8382 19.9816 16.838L18.5714 16.835C18.4365 16.8316 18.3252 16.943 18.3253 17.0811L18.3302 19.71C18.3303 19.7825 18.3008 19.8518 18.2482 19.9044C18.1397 20.0128 17.9616 20.0123 17.8527 19.9034L16.1163 18.1671C16.0605 18.111 16.0305 18.0418 16.0304 17.963L16.0235 14.089C16.0229 13.6872 16.3445 13.3647 16.7462 13.3653L22.2218 13.3761ZM19.2628 4.51181C19.7434 4.51297 20.1327 4.90231 20.1339 5.3829L20.1446 10.8585C20.1453 11.2603 19.8228 11.5819 19.421 11.5811L15.547 11.5743C15.4681 11.5741 15.3957 11.541 15.3429 11.4884L13.6066 9.75204C13.5538 9.69924 13.5204 9.62662 13.5235 9.55087C13.52 9.39606 13.6451 9.27095 13.7999 9.2745L16.4288 9.27938C16.5638 9.2829 16.6751 9.17158 16.6749 9.03329L16.673 7.62313C16.6726 7.48492 16.5602 7.37255 16.422 7.37216L11.7765 7.36337L10.2745 7.36044C10.0507 7.36016 9.86989 7.54091 9.87023 7.76473L9.87316 9.26669L9.88195 13.9122C9.88239 14.0503 9.9948 14.1628 10.1329 14.1632L11.5431 14.1651C11.6781 14.1687 11.7903 14.0573 11.7902 13.919L11.7843 11.2901C11.7842 11.2177 11.8138 11.1484 11.8663 11.0958C11.9748 10.9873 12.1529 10.9878 12.2618 11.0968L13.9982 12.8331C14.0541 12.8892 14.0839 12.9583 14.0841 13.0372L14.0919 16.9112C14.0926 17.313 13.7701 17.6356 13.3683 17.6349L7.89367 17.6241C7.41272 17.6232 7.02253 17.233 7.0216 16.752L7.00011 5.50595L7.00304 5.50985C7.00196 4.94984 7.4528 4.499 8.01281 4.50009L19.2628 4.51181Z" fill="var(--fill-0, #1740A8)"/>
</g>
</svg>
